<!--Scalable Vector Graphic-->
<svg xmlns="http://www.w3.org/2000/svg" version="1.1" xmlns:xlink="http://www.w3.org/1999/xlink" viewBox="0 0 40 40" display="none" width="0" height="0"><symbol id="icon-95cc8ee5d611e81aeda432cef856c7b8" viewBox="0 0 40 40"><path d="M34,11.7c0-0.6-0.2-1.2-0.7-1.6l-3.2-3.2c-0.4-0.4-1-0.7-1.6-0.7s-1.2,0.2-1.6,0.7L20,13.8l-6.9-6.9c-0.4-0.4-1-0.7-1.6-0.7 c-0.6,0-1.2,0.2-1.6,0.7l-3.2,3.2c-0.4,0.4-0.7,1-0.7,1.6c0,0.6,0.2,1.2,0.7,1.6l6.9,6.9l-6.9,6.9c-0.4,0.4-0.7,1-0.7,1.6 s0.2,1.2,0.7,1.6l3.2,3.2c0.4,0.4,1,0.7,1.6,0.7c0.6,0,1.2-0.2,1.6-0.7l6.9-6.9l6.9,6.9c0.4,0.4,1,0.7,1.6,0.7s1.2-0.2,1.6-0.7 l3.2-3.2c0.4-0.4,0.7-1,0.7-1.6s-0.2-1.2-0.7-1.6l-6.9-6.9l6.9-6.9C33.8,12.9,34,12.3,34,11.7z"></path></symbol><symbol id="icon-832d0db3865e9be82043b9aaf1097fd0" viewBox="0 0 40 40"><path d="M4.7,18V22c0,0.8,0.7,1.5,1.5,1.5h27.6c0.8,0,1.5-0.7,1.5-1.5V18c0-0.8-0.7-1.5-1.5-1.5H6.2C5.4,16.5,4.7,17.3,4.7,18z"></path></symbol><symbol id="icon-1b35464dbe189435dbdef370cda253a3" viewBox="0 0 40 40"><path d="M34,23.5H23.5V34c0,0.8-0.7,1.5-1.5,1.5H18c-0.8,0-1.5-0.7-1.5-1.5V23.5H6c-0.8,0-1.5-0.7-1.5-1.5V18 c0-0.8,0.7-1.5,1.5-1.5h10.5V6c0-0.8,0.7-1.5,1.5-1.5H22c0.8,0,1.5,0.7,1.5,1.5v10.5H34c0.8,0,1.5,0.7,1.5,1.5V22 C35.5,22.8,34.8,23.5,34,23.5z"></path></symbol><symbol id="icon-85976685de3e4af37529a1ce5d57d2a7" viewBox="0 0 40 40"><path d="M20,7c4.2,0,4.7,0,6.3,0.1c1.5,0.1,2.3,0.3,3,0.5C30,8,30.5,8.3,31.1,8.9c0.5,0.5,0.9,1.1,1.2,1.8c0.2,0.5,0.5,1.4,0.5,3 C33,15.3,33,15.8,33,20s0,4.7-0.1,6.3c-0.1,1.5-0.3,2.3-0.5,3c-0.3,0.7-0.6,1.2-1.2,1.8c-0.5,0.5-1.1,0.9-1.8,1.2 c-0.5,0.2-1.4,0.5-3,0.5C24.7,33,24.2,33,20,33s-4.7,0-6.3-0.1c-1.5-0.1-2.3-0.3-3-0.5C10,32,9.5,31.7,8.9,31.1 C8.4,30.6,8,30,7.7,29.3c-0.2-0.5-0.5-1.4-0.5-3C7,24.7,7,24.2,7,20s0-4.7,0.1-6.3c0.1-1.5,0.3-2.3,0.5-3C8,10,8.3,9.5,8.9,8.9 C9.4,8.4,10,8,10.7,7.7c0.5-0.2,1.4-0.5,3-0.5C15.3,7.1,15.8,7,20,7z M20,4.3c-4.3,0-4.8,0-6.5,0.1c-1.6,0-2.8,0.3-3.8,0.7 C8.7,5.5,7.8,6,6.9,6.9C6,7.8,5.5,8.7,5.1,9.7c-0.4,1-0.6,2.1-0.7,3.8c-0.1,1.7-0.1,2.2-0.1,6.5s0,4.8,0.1,6.5 c0,1.6,0.3,2.8,0.7,3.8c0.4,1,0.9,1.9,1.8,2.8c0.9,0.9,1.7,1.4,2.8,1.8c1,0.4,2.1,0.6,3.8,0.7c1.6,0.1,2.2,0.1,6.5,0.1 s4.8,0,6.5-0.1c1.6-0.1,2.9-0.3,3.8-0.7c1-0.4,1.9-0.9,2.8-1.8c0.9-0.9,1.4-1.7,1.8-2.8c0.4-1,0.6-2.1,0.7-3.8 c0.1-1.6,0.1-2.2,0.1-6.5s0-4.8-0.1-6.5c-0.1-1.6-0.3-2.9-0.7-3.8c-0.4-1-0.9-1.9-1.8-2.8c-0.9-0.9-1.7-1.4-2.8-1.8 c-1-0.4-2.1-0.6-3.8-0.7C24.8,4.3,24.3,4.3,20,4.3L20,4.3L20,4.3z"></path><path d="M20,11.9c-4.5,0-8.1,3.7-8.1,8.1s3.7,8.1,8.1,8.1s8.1-3.7,8.1-8.1S24.5,11.9,20,11.9z M20,25.2c-2.9,0-5.2-2.3-5.2-5.2 s2.3-5.2,5.2-5.2s5.2,2.3,5.2,5.2S22.9,25.2,20,25.2z"></path><path d="M30.6,11.6c0,1-0.8,1.9-1.9,1.9c-1,0-1.9-0.8-1.9-1.9s0.8-1.9,1.9-1.9C29.8,9.7,30.6,10.5,30.6,11.6z"></path></symbol><symbol id="icon-3b7eeeccbb457780f277fce4669f67a0" viewBox="0 0 40 40"><path d="M33.2,8.3c-2.5-1.1-5.1-1.9-7.9-2.4c-0.3,0.6-0.7,1.4-1,2c-2.9-0.4-5.8-0.4-8.7,0c-0.3-0.6-0.7-1.4-1-2 c-2.8,0.5-5.4,1.3-7.9,2.4c-5,7.2-6.3,14.2-5.6,21.1c3.3,2.3,6.5,3.8,9.6,4.7c0.8-1,1.5-2.1,2.1-3.3c-1.1-0.4-2.2-0.9-3.2-1.5 c0.3-0.2,0.5-0.4,0.8-0.6c6.3,2.8,13,2.8,19.2,0c0.3,0.2,0.5,0.4,0.8,0.6c-1,0.6-2.1,1.1-3.2,1.5c0.6,1.1,1.3,2.2,2.1,3.3 c3.1-0.9,6.3-2.4,9.6-4.7C39.7,21.4,37.5,14.4,33.2,8.3z M13.7,25.1c-1.9,0-3.4-1.7-3.4-3.7s1.5-3.7,3.4-3.7c1.9,0,3.5,1.7,3.4,3.7 C17.1,23.4,15.6,25.1,13.7,25.1z M26.3,25.1c-1.9,0-3.4-1.7-3.4-3.7s1.5-3.7,3.4-3.7c1.9,0,3.5,1.7,3.4,3.7 C29.7,23.4,28.2,25.1,26.3,25.1z"></path></symbol><symbol id="icon-a63c85b2b6ee333b6d6753e57c8dfe0a" viewBox="0 0 40 40"><path d="M37.6,27.1c0,0-0.3,2.4-1.4,3.5c-1.4,1.4-2.9,1.4-3.6,1.5c-5,0.4-12.4,0.4-12.4,0.4s-9.2-0.1-12.1-0.4 c-0.8-0.1-2.6-0.1-3.9-1.5c-1.1-1.1-1.4-3.5-1.4-3.5s-0.4-2.9-0.4-5.7v-2.7c0-2.9,0.4-5.7,0.4-5.7s0.3-2.4,1.4-3.5 C5.5,8,7,8,7.7,7.9c5-0.4,12.4-0.4,12.4-0.4h0c0,0,7.5,0,12.4,0.4C33.3,8,34.8,8,36.2,9.4c1.1,1.1,1.4,3.5,1.4,3.5s0.4,2.9,0.4,5.7 v2.7C37.9,24.2,37.6,27.1,37.6,27.1z M16.5,14.6l0,9.9l9.6-5L16.5,14.6z"></path></symbol><symbol id="icon-49063465275d0a5582c7c5dfbf0e4536" viewBox="0 0 40 40"><path d="M13.8,27.4l0.3-4.2L13.8,14c0-0.1-0.1-0.2-0.1-0.3c-0.1-0.1-0.2-0.1-0.3-0.1c-0.1,0-0.2,0-0.3,0.1C13.1,13.8,13,13.9,13,14 l-0.2,9.2l0.2,4.2c0,0.1,0.1,0.2,0.1,0.3c0.1,0.1,0.2,0.1,0.3,0.1C13.7,27.8,13.8,27.7,13.8,27.4z M18.8,26.9l0.2-3.7l-0.2-10.3 c0-0.2-0.1-0.3-0.2-0.4c-0.1-0.1-0.2-0.1-0.3-0.1s-0.2,0-0.3,0.1c-0.1,0.1-0.2,0.2-0.2,0.4l0,0.1l-0.2,10.1c0,0,0.1,1.4,0.2,4.1v0 c0,0.1,0,0.2,0.1,0.3c0.1,0.1,0.2,0.2,0.4,0.2c0.1,0,0.2-0.1,0.3-0.2c0.1-0.1,0.2-0.2,0.2-0.4L18.8,26.9z M1.2,20.9l0.3,2.2 l-0.3,2.2c0,0.1-0.1,0.2-0.2,0.2c-0.1,0-0.1-0.1-0.2-0.2l-0.3-2.2l0.3-2.2c0-0.1,0.1-0.2,0.2-0.2S1.2,20.8,1.2,20.9z M2.7,19.5 l0.4,3.6l-0.4,3.6c0,0.1-0.1,0.2-0.2,0.2c-0.1,0-0.2-0.1-0.2-0.2L2,23.2l0.4-3.6c0-0.1,0.1-0.2,0.2-0.2C2.6,19.4,2.7,19.4,2.7,19.5z M4.2,18.9l0.4,4.3l-0.4,4.2c0,0.1-0.1,0.2-0.2,0.2c-0.1,0-0.2-0.1-0.2-0.2l-0.4-4.2l0.4-4.3c0-0.1,0.1-0.2,0.2-0.2 C4.2,18.7,4.2,18.7,4.2,18.9z M5.8,18.8l0.4,4.4l-0.4,4.3c0,0.2-0.1,0.2-0.2,0.2c-0.1,0-0.2-0.1-0.2-0.2L5,23.2l0.4-4.4 c0-0.2,0.1-0.2,0.2-0.2C5.7,18.5,5.8,18.6,5.8,18.8z M7.4,19.1l0.4,4.1l-0.4,4.3c0,0.2-0.1,0.3-0.3,0.3c-0.1,0-0.1,0-0.2-0.1 c-0.1-0.1-0.1-0.1-0.1-0.2l-0.3-4.3l0.3-4.1c0-0.1,0-0.1,0.1-0.2C7,18.8,7,18.8,7.1,18.8C7.3,18.8,7.4,18.9,7.4,19.1L7.4,19.1z M9,16.5l0.4,6.7L9,27.5c0,0.1,0,0.2-0.1,0.2c-0.1,0.1-0.1,0.1-0.2,0.1c-0.2,0-0.3-0.1-0.3-0.3l-0.3-4.3l0.3-6.7 c0-0.2,0.1-0.3,0.3-0.3c0.1,0,0.1,0,0.2,0.1S9,16.4,9,16.5z M10.5,15l0.3,8.2l-0.3,4.3c0,0.1,0,0.2-0.1,0.2 c-0.1,0.1-0.1,0.1-0.2,0.1c-0.2,0-0.3-0.1-0.3-0.3l-0.3-4.3L9.9,15c0-0.2,0.1-0.3,0.3-0.3c0.1,0,0.2,0,0.2,0.1 C10.5,14.8,10.5,14.9,10.5,15z M12.2,14.3l0.3,8.9l-0.3,4.2c0,0.2-0.1,0.4-0.4,0.4c-0.2,0-0.3-0.1-0.4-0.4l-0.3-4.2l0.3-8.9 c0-0.1,0-0.2,0.1-0.3c0.1-0.1,0.2-0.1,0.2-0.1c0.1,0,0.2,0,0.3,0.1C12.1,14.1,12.2,14.2,12.2,14.3z M18.8,27.3L18.8,27.3L18.8,27.3z M15.4,14.2l0.3,8.9l-0.3,4.2c0,0.1,0,0.2-0.1,0.3c-0.1,0.1-0.2,0.1-0.3,0.1c-0.1,0-0.2,0-0.3-0.1s-0.1-0.2-0.1-0.3l-0.2-4.2 l0.2-8.9c0-0.1,0-0.2,0.1-0.3c0.1-0.1,0.2-0.1,0.3-0.1c0.1,0,0.2,0,0.3,0.1C15.4,14,15.4,14.1,15.4,14.2L15.4,14.2z M17.1,14.6 l0.2,8.6l-0.2,4.1c0,0.1,0,0.2-0.1,0.3c-0.1,0.1-0.2,0.1-0.3,0.1c-0.1,0-0.2,0-0.3-0.1c-0.1-0.1-0.1-0.2-0.2-0.3L16,23.2l0.2-8.6 c0-0.1,0.1-0.3,0.2-0.4c0.1-0.1,0.2-0.1,0.3-0.1c0.1,0,0.2,0,0.3,0.1C17.1,14.3,17.1,14.4,17.1,14.6z M20.7,23.2l-0.2,4 c0,0.2-0.1,0.3-0.2,0.4c-0.1,0.1-0.2,0.2-0.4,0.2c-0.1,0-0.3-0.1-0.4-0.2c-0.1-0.1-0.2-0.2-0.2-0.4l-0.1-2l-0.1-2L19.4,12V12 c0-0.2,0.1-0.3,0.2-0.4c0.1-0.1,0.2-0.1,0.3-0.1c0.1,0,0.2,0,0.3,0.1c0.2,0.1,0.2,0.2,0.3,0.5L20.7,23.2z M39.4,22.9 c0,1.4-0.5,2.5-1.4,3.5c-0.9,1-2,1.4-3.4,1.4H21.4c-0.1,0-0.3-0.1-0.4-0.2c-0.1-0.1-0.2-0.2-0.2-0.4V11.5c0-0.3,0.2-0.5,0.5-0.6 c1-0.4,2-0.6,3-0.6c2.2,0,4.1,0.8,5.7,2.3c1.6,1.5,2.5,3.4,2.7,5.7c0.6-0.3,1.2-0.4,1.8-0.4c1.3,0,2.4,0.5,3.4,1.5 C38.9,20.3,39.4,21.5,39.4,22.9L39.4,22.9z"></path></symbol><symbol id="icon-6f1173b99f06aa4855b8fd26db52c969" viewBox="0 0 40 40"><path d="M26.9,26.3c0-0.4-0.2-0.8-0.6-1c-2.6-1.5-5.6-2.3-9-2.3c-1.8,0-3.7,0.2-5.8,0.7c-0.6,0.1-0.8,0.5-0.8,1 c0,0.3,0.1,0.5,0.3,0.7c0.2,0.2,0.4,0.3,0.7,0.3c0.1,0,0.3-0.1,0.7-0.2c1.8-0.4,3.4-0.5,4.9-0.5c3,0,5.7,0.7,8,2.1 c0.3,0.1,0.5,0.2,0.7,0.2c0.3,0,0.5-0.1,0.7-0.3C26.8,26.8,26.9,26.6,26.9,26.3L26.9,26.3z M28.8,22c0-0.5-0.2-0.9-0.7-1.2 c-3.2-1.9-6.8-2.8-11-2.8c-2,0-4.1,0.3-6.1,0.8c-0.6,0.2-1,0.6-1,1.3c0,0.3,0.1,0.6,0.4,0.9c0.2,0.2,0.5,0.4,0.9,0.4 c0.1,0,0.3-0.1,0.7-0.2c1.6-0.4,3.3-0.7,5-0.7c3.7,0,7,0.8,9.8,2.5c0.3,0.2,0.6,0.3,0.8,0.3c0.3,0,0.6-0.1,0.9-0.4 C28.7,22.6,28.8,22.3,28.8,22L28.8,22z M31,17c0-0.6-0.3-1.1-0.8-1.4c-1.7-1-3.6-1.7-5.9-2.2c-2.2-0.5-4.5-0.8-6.9-0.8 c-2.7,0-5.2,0.3-7.3,0.9c-0.3,0.1-0.6,0.3-0.8,0.5c-0.2,0.2-0.3,0.6-0.3,1c0,0.4,0.1,0.8,0.4,1c0.3,0.3,0.6,0.4,1,0.4 c0.1,0,0.4-0.1,0.8-0.2c1.8-0.5,3.8-0.7,6.2-0.7c2.1,0,4.2,0.2,6.2,0.7c2,0.5,3.7,1.1,5.1,1.9c0.3,0.2,0.5,0.2,0.8,0.2 c0.4,0,0.7-0.1,1-0.4C30.8,17.8,31,17.4,31,17L31,17z M35.1,20c0,2.8-0.7,5.4-2.1,7.7c-1.4,2.4-3.3,4.2-5.6,5.6 c-2.4,1.4-4.9,2.1-7.7,2.1c-2.8,0-5.4-0.7-7.7-2.1c-2.4-1.4-4.2-3.3-5.6-5.6S4.2,22.8,4.2,20s0.7-5.4,2.1-7.7S9.5,8,11.9,6.6 s4.9-2.1,7.7-2.1c2.8,0,5.4,0.7,7.7,2.1s4.2,3.3,5.6,5.6C34.4,14.6,35.1,17.2,35.1,20z"></path></symbol><symbol id="icon-422e9320a86e6b1908f65c1f963b6249" viewBox="0 0 40 40"><path d="M36.3,12.5c-0.4-1.3-0.9-2.6-1.6-3.9c-1.4-2.6-3.4-4.7-6.1-6.1c-1.8-1-3.8-1.6-5.9-1.8 c-3.3-0.4-6.5-0.2-9.6,0.9c-2.7,1-4.9,2.6-6.7,4.9c-1.4,1.9-2.3,3.9-2.9,6.2c-0.7,2.4-0.9,4.9-0.9,7.5c0,0.8,0,1.6,0.1,2.5 c0.1,1.7,0.4,3.4,0.9,5c0.3,1,0.6,1.9,1,2.8c1,2.1,2.3,3.9,4,5.4c2.2,1.9,4.8,2.9,7.7,3.4c1.7,0.3,3.3,0.3,5,0.2 c2.1-0.1,4.1-0.5,5.9-1.4c1.6-0.7,3-1.7,4.2-3c1.4-1.4,2.4-3,2.9-4.9c0.5-1.8,0.5-3.6,0-5.4c-0.4-1.6-1.3-3-2.4-4.1 c-1-0.9-2.1-1.7-3.3-2.2c-0.2-0.1-0.3-0.1-0.3-0.4c0-0.7-0.1-1.4-0.3-2.1c-0.3-1.5-1-2.9-2-4c-1.1-1.1-2.4-1.8-3.9-2.2 c-1.6-0.3-3.1-0.3-4.7,0.1c-1.9,0.5-3.5,1.5-4.6,3.2c-0.1,0.2-0.1,0.2,0.1,0.4c0.8,0.5,1.6,1.1,2.4,1.6c0.2,0.1,0.3,0.1,0.4-0.1 c0.4-0.5,0.9-0.9,1.4-1.3c1.1-0.6,2.2-0.7,3.4-0.6c0.9,0.1,1.8,0.3,2.6,0.9c1.1,0.8,1.5,1.9,1.8,3.2c0,0.2-0.1,0.2-0.2,0.2 c-1.7-0.2-3.4-0.3-5-0.1c-1.5,0.1-3,0.5-4.3,1.4c-1.7,1.1-2.8,2.6-3,4.6c-0.2,2.5,0.7,4.6,2.9,5.9c2.3,1.5,4.9,1.6,7.5,0.8 c2.2-0.7,3.7-2.2,4.7-4.3c0.5-1,0.7-2.1,0.9-3.2c0-0.2,0-0.3,0.2-0.1c0.8,0.5,1.5,1.1,2,2c1.2,2.1,1.2,4.3,0.1,6.4 c-1.1,2.2-3,3.7-5.3,4.5c-1.3,0.5-2.7,0.7-4.1,0.8c-2.5,0.2-4.9-0.1-7.3-1c-2.1-0.8-3.7-2.2-5-4c-1.2-1.7-1.9-3.7-2.3-5.7 C6,22.5,5.9,19.8,6.2,17C6.5,14.8,7,12.6,8,10.6c1.2-2.4,3-4.3,5.4-5.4c1.4-0.7,3-1,4.6-1.2c2.4-0.2,4.7-0.1,7,0.6 c1.8,0.6,3.4,1.5,4.7,2.8c1.7,1.7,2.7,3.7,3.4,5.9c0.1,0.2,0.1,0.3,0.3,0.2c0.9-0.3,1.9-0.5,2.8-0.7C36.3,12.8,36.4,12.7,36.3,12.5z M24.1,24.5c-0.7,1.3-1.8,2.1-3.3,2.3c-0.3,0-0.7,0.1-1,0.1c-1,0-2-0.2-2.9-0.8c-1.6-1.1-1.6-3.2-0.1-4.4c0.7-0.6,1.6-0.8,2.4-1 c1.8-0.3,3.6-0.2,5.4,0.1c0.3,0.1,0.4,0.2,0.3,0.5C24.8,22.3,24.6,23.4,24.1,24.5z"></path></symbol></svg>
